<svg width="98" height="86" viewBox="0 0 98 86" fill="none" xmlns="http://www.w3.org/2000/svg">
<rect width="10" height="10" fill="#A9A9A9"/>
<rect x="22" width="10" height="10" fill="#A9A9A9"/>
<rect x="44" width="10" height="10" fill="#A9A9A9"/>
<rect x="66" width="10" height="10" fill="#A9A9A9"/>
<rect x="88" width="10" height="10" fill="#A9A9A9"/>
<rect y="19" width="10" height="10" fill="#A9A9A9"/>
<rect x="22" y="19" width="10" height="10" fill="#A9A9A9"/>
<rect x="44" y="19" width="10" height="10" fill="#A9A9A9"/>
<rect x="66" y="19" width="10" height="10" fill="#A9A9A9"/>
<rect x="88" y="19" width="10" height="10" fill="#A9A9A9"/>
<rect y="38" width="10" height="10" fill="#A9A9A9"/>
<rect x="22" y="38" width="10" height="10" fill="#A9A9A9"/>
<rect x="44" y="38" width="10" height="10" fill="#A9A9A9"/>
<rect x="66" y="38" width="10" height="10" fill="#A9A9A9"/>
<rect x="88" y="38" width="10" height="10" fill="#A9A9A9"/>
<rect y="57" width="10" height="10" fill="#A9A9A9"/>
<rect x="22" y="57" width="10" height="10" fill="#A9A9A9"/>
<rect x="44" y="57" width="10" height="10" fill="#A9A9A9"/>
<rect x="66" y="57" width="10" height="10" fill="#A9A9A9"/>
<rect x="88" y="57" width="10" height="10" fill="#A9A9A9"/>
<rect y="76" width="10" height="10" fill="#A9A9A9"/>
<rect x="22" y="76" width="10" height="10" fill="#A9A9A9"/>
<rect x="44" y="76" width="10" height="10" fill="#A9A9A9"/>
<rect x="66" y="76" width="10" height="10" fill="#A9A9A9"/>
<rect x="88" y="76" width="10" height="10" fill="#A9A9A9"/>
</svg>
