<svg width="24" height="24" viewBox="0 0 24 24" fill="none" xmlns="http://www.w3.org/2000/svg">
<path fill-rule="evenodd" clip-rule="evenodd" d="M12.573 4.49976H6.304C3.73889 4.49976 2 6.21885 2 8.68776V15.7028C2 18.1717 3.73889 19.8908 6.304 19.8908H12.573C14.9912 19.8908 16.6808 18.3553 16.861 16.1066L19.5079 17.1885L19.6405 17.2369C20.7923 17.6087 21.9997 16.7525 21.9997 15.5153V8.87626L21.9944 8.73524C21.9034 7.52857 20.6537 6.73449 19.5083 7.20184L16.8611 8.28386C16.6814 6.03363 14.9951 4.49976 12.573 4.49976ZM15.377 9.36729C15.3763 9.38538 15.3763 9.40355 15.377 9.42176V14.9688C15.3763 14.987 15.3763 15.0051 15.377 15.0232V15.7028C15.377 17.3366 14.3092 18.3908 12.573 18.3908H6.304C4.5635 18.3908 3.5 17.3394 3.5 15.7028V8.68776C3.5 7.05114 4.5635 5.99976 6.304 5.99976H12.573C14.3129 5.99976 15.377 7.05153 15.377 8.68776V9.36729ZM16.877 14.4927V9.89781L20.0755 8.5905L20.1433 8.57135C20.3243 8.54197 20.4997 8.68146 20.4997 8.87626V15.5153L20.4918 15.5854C20.4507 15.7642 20.2556 15.8735 20.0751 15.7998L16.877 14.4927Z" fill="white"/>
</svg>
