<svg width="104" height="26" viewBox="0 0 104 26" fill="none" xmlns="http://www.w3.org/2000/svg">
<path d="M35.4733 9.01645C36.3386 9.01645 37.0936 9.19196 37.7385 9.54297C38.3916 9.89399 38.8977 10.4001 39.2569 11.0613C39.616 11.7144 39.7956 12.5103 39.7956 13.449C39.7956 14.3633 39.612 15.1633 39.2446 15.849C38.8773 16.5347 38.363 17.0693 37.7018 17.453C37.0487 17.8367 36.3018 18.0285 35.461 18.0285C34.5957 18.0285 33.8366 17.853 33.1835 17.502C32.5386 17.151 32.0366 16.6449 31.6774 15.9836C31.3183 15.3224 31.1387 14.5265 31.1387 13.5959C31.1387 12.6817 31.3223 11.8817 31.6897 11.196C32.0652 10.5103 32.5754 9.97562 33.2203 9.59195C33.8733 9.20829 34.6243 9.01645 35.4733 9.01645ZM35.4243 9.23686C34.9672 9.23686 34.5672 9.42053 34.2243 9.78786C33.8896 10.1552 33.6284 10.6613 33.4407 11.3062C33.2611 11.9511 33.1713 12.698 33.1713 13.547C33.1713 14.4123 33.2733 15.1673 33.4774 15.8122C33.6896 16.4489 33.9713 16.9428 34.3223 17.2938C34.6815 17.6367 35.0774 17.8081 35.51 17.8081C35.9671 17.8081 36.363 17.6244 36.6977 17.2571C37.0406 16.8897 37.3018 16.3836 37.4814 15.7388C37.6691 15.0857 37.763 14.3388 37.763 13.498C37.763 12.6245 37.6569 11.8695 37.4447 11.2327C37.2406 10.596 36.959 10.1062 36.5998 9.76338C36.2488 9.41236 35.8569 9.23686 35.4243 9.23686Z" fill="white"/>
<path d="M42.9911 11.3919V18.8611C42.9911 19.2448 43.089 19.4979 43.285 19.6203C43.4809 19.7509 43.7503 19.8162 44.0931 19.8162V20.0733C43.8809 20.0652 43.587 20.0529 43.2115 20.0366C42.8442 20.0285 42.4523 20.0244 42.036 20.0244C41.734 20.0244 41.436 20.0285 41.1421 20.0366C40.8564 20.0529 40.6401 20.0652 40.4932 20.0733V19.8162C40.7626 19.8162 40.9503 19.7591 41.0564 19.6448C41.1707 19.5305 41.2279 19.3101 41.2279 18.9836V12.8613C41.2279 12.4939 41.1707 12.2245 41.0564 12.0531C40.9422 11.8735 40.7381 11.7837 40.4442 11.7837V11.5266C40.7054 11.5511 40.9585 11.5633 41.2034 11.5633C41.5381 11.5633 41.8564 11.5511 42.1585 11.5266C42.4605 11.4939 42.738 11.4491 42.9911 11.3919ZM44.889 11.3552C45.5094 11.3552 46.0278 11.6082 46.4441 12.1143C46.8686 12.6205 47.0808 13.3837 47.0808 14.4041C47.0808 15.1959 46.9624 15.8612 46.7257 16.4C46.489 16.9387 46.1584 17.3469 45.7339 17.6244C45.3176 17.8938 44.8196 18.0285 44.24 18.0285C43.9217 18.0285 43.6319 17.9714 43.3707 17.8571C43.1095 17.751 42.9095 17.5959 42.7707 17.3918L42.8931 17.2326C42.9748 17.3795 43.089 17.4938 43.236 17.5754C43.3911 17.6571 43.5666 17.6979 43.7625 17.6979C44.1298 17.6979 44.4196 17.5754 44.6319 17.3306C44.8441 17.0775 44.9951 16.7265 45.0849 16.2775C45.1829 15.8204 45.2319 15.2775 45.2319 14.649C45.2319 13.947 45.187 13.3959 45.0972 12.996C45.0074 12.596 44.8849 12.3103 44.7298 12.1388C44.5747 11.9674 44.387 11.8817 44.1666 11.8817C43.8727 11.8817 43.6033 11.996 43.3584 12.2245C43.1217 12.4531 42.987 12.7796 42.9544 13.2041L42.8931 12.7756C43.0401 12.3103 43.289 11.9592 43.6401 11.7225C43.9992 11.4776 44.4155 11.3552 44.889 11.3552Z" fill="white"/>
<path d="M50.8718 11.3552C51.5902 11.3552 52.1534 11.5674 52.5616 11.9919C52.9698 12.4164 53.1738 13.1102 53.1738 14.0735H49.1453L49.1209 13.8408H51.631C51.6392 13.4408 51.6147 13.0735 51.5575 12.7388C51.5004 12.396 51.4106 12.1225 51.2882 11.9184C51.1657 11.7144 51.0025 11.6123 50.7984 11.6123C50.5127 11.6123 50.2678 11.7919 50.0637 12.1511C49.8678 12.5103 49.7494 13.1062 49.7086 13.9388L49.7453 14.0123C49.7372 14.1102 49.729 14.2123 49.7208 14.3184C49.7208 14.4245 49.7208 14.5347 49.7208 14.649C49.7208 15.2122 49.7984 15.6694 49.9535 16.0204C50.1168 16.3714 50.3208 16.6285 50.5657 16.7918C50.8106 16.9469 51.0596 17.0244 51.3126 17.0244C51.5575 17.0244 51.8228 16.9632 52.1086 16.8408C52.4024 16.7183 52.6759 16.453 52.9289 16.0449L53.1493 16.1183C53.0514 16.4285 52.8963 16.7306 52.684 17.0244C52.4718 17.3183 52.2024 17.5591 51.8759 17.7469C51.5494 17.9346 51.1576 18.0285 50.7004 18.0285C50.1453 18.0285 49.6555 17.9101 49.2311 17.6734C48.8066 17.4367 48.4719 17.0775 48.227 16.5959C47.9903 16.1143 47.8719 15.502 47.8719 14.7592C47.8719 14 47.9984 13.3674 48.2515 12.8613C48.5127 12.3552 48.8678 11.9797 49.3168 11.7348C49.7739 11.4817 50.2923 11.3552 50.8718 11.3552Z" fill="white"/>
<path d="M58.2437 11.3552C58.5865 11.3552 58.8641 11.4001 59.0763 11.4899C59.2967 11.5715 59.4681 11.6858 59.5906 11.8327C59.7212 11.9878 59.8151 12.1878 59.8722 12.4327C59.9375 12.6776 59.9702 13.0082 59.9702 13.4245V16.7183C59.9702 17.0612 60.0273 17.2938 60.1416 17.4163C60.264 17.5387 60.4681 17.5999 60.7538 17.5999V17.8571C60.5987 17.8489 60.3661 17.8407 60.0559 17.8326C59.7457 17.8163 59.4396 17.8081 59.1375 17.8081C58.8273 17.8081 58.5212 17.8163 58.2192 17.8326C57.9253 17.8407 57.7008 17.8489 57.5457 17.8571V17.5999C57.7906 17.5999 57.9621 17.5387 58.06 17.4163C58.158 17.2938 58.2069 17.0612 58.2069 16.7183V12.9102C58.2069 12.7062 58.1865 12.5307 58.1457 12.3837C58.1049 12.2286 58.0314 12.1103 57.9253 12.0286C57.8192 11.9388 57.66 11.8939 57.4478 11.8939C57.1049 11.8939 56.8151 12.0286 56.5784 12.298C56.3498 12.5674 56.2356 12.9062 56.2356 13.3143V16.7183C56.2356 17.0612 56.2845 17.2938 56.3825 17.4163C56.4886 17.5387 56.66 17.5999 56.8968 17.5999V17.8571C56.7498 17.8489 56.5335 17.8407 56.2478 17.8326C55.9703 17.8163 55.6805 17.8081 55.3784 17.8081C55.0682 17.8081 54.7499 17.8163 54.4234 17.8326C54.0968 17.8407 53.8519 17.8489 53.6887 17.8571V17.5999C53.9744 17.5999 54.1744 17.5387 54.2887 17.4163C54.4111 17.2938 54.4723 17.0612 54.4723 16.7183V12.8613C54.4723 12.4939 54.4152 12.2245 54.3009 12.0531C54.1948 11.8735 53.9907 11.7837 53.6887 11.7837V11.5266C53.9499 11.5511 54.203 11.5633 54.4478 11.5633C54.7907 11.5633 55.1091 11.5511 55.4029 11.5266C55.705 11.4939 55.9825 11.4491 56.2356 11.3919V12.4939C56.4396 12.0776 56.7172 11.7837 57.0682 11.6123C57.4192 11.4409 57.811 11.3552 58.2437 11.3552Z" fill="white"/>
<path d="M65.2997 9.16339L68.2752 16.8285C68.3895 17.1224 68.516 17.3265 68.6548 17.4408C68.8017 17.5469 68.9323 17.604 69.0466 17.6122V17.8571C68.8017 17.8407 68.5119 17.8326 68.1772 17.8326C67.8507 17.8244 67.5201 17.8203 67.1854 17.8203C66.8099 17.8203 66.4548 17.8244 66.1201 17.8326C65.7854 17.8326 65.5201 17.8407 65.3242 17.8571V17.6122C65.7406 17.5959 66.0018 17.5265 66.1079 17.404C66.2222 17.2734 66.1977 16.9999 66.0344 16.5836L63.9528 10.8899L64.1732 10.5715L62.3121 15.4204C62.0835 16.0245 61.9692 16.4816 61.9692 16.7918C61.9774 17.102 62.0794 17.3142 62.2753 17.4285C62.4712 17.5346 62.7325 17.5959 63.059 17.6122V17.8571C62.7896 17.8407 62.5325 17.8326 62.2876 17.8326C62.0427 17.8244 61.7937 17.8203 61.5406 17.8203C61.3611 17.8203 61.1896 17.8244 61.0264 17.8326C60.8713 17.8326 60.7325 17.8407 60.6101 17.8571V17.6122C60.7815 17.5795 60.957 17.4693 61.1366 17.2816C61.3162 17.0938 61.4917 16.7755 61.6631 16.3265L64.4549 9.16339C64.5855 9.17155 64.7242 9.17563 64.8712 9.17563C65.0263 9.17563 65.1691 9.17155 65.2997 9.16339ZM66.1569 14.3306V14.5755H62.508L62.6304 14.3306H66.1569Z" fill="white"/>
<path d="M75.1566 8.26953V16.5102C75.1566 16.8775 75.2137 17.151 75.328 17.3306C75.4423 17.502 75.6464 17.5877 75.9402 17.5877V17.8448C75.6872 17.8203 75.4341 17.8081 75.1811 17.8081C74.8382 17.8081 74.5158 17.8203 74.2137 17.8448C73.9199 17.8693 73.6464 17.9142 73.3933 17.9795V9.73889C73.3933 9.37155 73.3362 9.10217 73.2219 8.93074C73.1158 8.75115 72.9117 8.66136 72.6097 8.66136V8.40422C72.8709 8.42871 73.124 8.44096 73.3689 8.44096C73.7035 8.44096 74.0219 8.42871 74.3239 8.40422C74.626 8.37157 74.9035 8.32667 75.1566 8.26953ZM72.0342 11.3552C72.3934 11.3552 72.7076 11.4164 72.977 11.5388C73.2546 11.6531 73.4709 11.849 73.626 12.1266L73.4791 12.2613C73.3729 12.0654 73.2301 11.9266 73.0505 11.845C72.8791 11.7552 72.6954 11.7103 72.4995 11.7103C72.0832 11.7103 71.7526 11.9552 71.5077 12.4449C71.2628 12.9266 71.1444 13.6735 71.1526 14.6857C71.1526 15.3796 71.1975 15.9347 71.2873 16.351C71.3852 16.7591 71.5199 17.053 71.6913 17.2326C71.8709 17.4122 72.075 17.502 72.3036 17.502C72.5811 17.502 72.8301 17.3918 73.0505 17.1714C73.2709 16.951 73.3893 16.653 73.4056 16.2775L73.4668 16.7061C73.3444 17.1387 73.1444 17.4693 72.8668 17.6979C72.5975 17.9183 72.2424 18.0285 71.8015 18.0285C71.3199 18.0285 70.8873 17.9101 70.5036 17.6734C70.1281 17.4367 69.8342 17.0734 69.622 16.5836C69.4098 16.0857 69.3036 15.4449 69.3036 14.6612C69.3036 13.9184 69.422 13.3062 69.6587 12.8245C69.8955 12.3347 70.2179 11.9674 70.6261 11.7225C71.0424 11.4776 71.5118 11.3552 72.0342 11.3552Z" fill="white"/>
<path d="M82.242 11.5266V11.7715C82.0869 11.8123 81.94 11.9103 81.8012 12.0654C81.6624 12.2123 81.5277 12.4654 81.3971 12.8245L79.6094 17.8816C79.4788 17.8734 79.3441 17.8693 79.2053 17.8693C79.0747 17.8693 78.9441 17.8734 78.8135 17.8816L76.634 12.4694C76.5034 12.1511 76.3727 11.9592 76.2421 11.8939C76.1197 11.8205 76.0136 11.7837 75.9238 11.7837V11.5266C76.185 11.5429 76.4544 11.5593 76.7319 11.5756C77.0176 11.5837 77.3278 11.5878 77.6625 11.5878C77.9156 11.5878 78.1809 11.5837 78.4584 11.5756C78.7441 11.5593 79.0094 11.5429 79.2543 11.5266V11.7837C79.0829 11.7837 78.9278 11.7919 78.789 11.8082C78.6584 11.8246 78.5686 11.8776 78.5196 11.9674C78.4707 12.0572 78.4788 12.2164 78.5441 12.4449L79.9767 16.2408L79.8543 16.4122L80.8216 13.7306C81.0502 13.0694 81.0869 12.5878 80.9318 12.2858C80.7767 11.9756 80.5073 11.8041 80.1237 11.7715V11.5266C80.3114 11.5348 80.5114 11.5429 80.7237 11.5511C80.9441 11.5593 81.1359 11.5633 81.2992 11.5633C81.4624 11.5633 81.6339 11.5593 81.8134 11.5511C81.993 11.5429 82.1359 11.5348 82.242 11.5266Z" fill="white"/>
<path d="M84.0152 8.36749C84.358 8.36749 84.6274 8.4532 84.8233 8.62463C85.0274 8.78789 85.1294 9.01645 85.1294 9.31032C85.1294 9.6042 85.0274 9.83684 84.8233 10.0083C84.6274 10.1715 84.358 10.2532 84.0152 10.2532C83.6723 10.2532 83.3989 10.1715 83.1948 10.0083C82.9989 9.83684 82.9009 9.6042 82.9009 9.31032C82.9009 9.01645 82.9989 8.78789 83.1948 8.62463C83.3989 8.4532 83.6723 8.36749 84.0152 8.36749ZM84.9703 11.3919V16.7183C84.9703 17.0612 85.0274 17.2938 85.1417 17.4163C85.2641 17.5387 85.4682 17.5999 85.7539 17.5999V17.8571C85.607 17.8489 85.3784 17.8407 85.0682 17.8326C84.758 17.8163 84.4437 17.8081 84.1254 17.8081C83.807 17.8081 83.4846 17.8163 83.1581 17.8326C82.8315 17.8407 82.5866 17.8489 82.4234 17.8571V17.5999C82.7091 17.5999 82.9091 17.5387 83.0234 17.4163C83.1458 17.2938 83.207 17.0612 83.207 16.7183V12.8613C83.207 12.4939 83.1499 12.2245 83.0356 12.0531C82.9295 11.8735 82.7254 11.7837 82.4234 11.7837V11.5266C82.6846 11.5511 82.9377 11.5633 83.1825 11.5633C83.5254 11.5633 83.8438 11.5511 84.1376 11.5266C84.4397 11.4939 84.7172 11.4491 84.9703 11.3919Z" fill="white"/>
<path d="M88.5877 11.3552C88.9305 11.3552 89.2285 11.4001 89.4815 11.4899C89.7428 11.5715 89.9305 11.6531 90.0448 11.7348C90.3223 11.9225 90.4938 11.8001 90.5591 11.3674H90.8162C90.7999 11.596 90.7876 11.8776 90.7795 12.2123C90.7713 12.5388 90.7672 12.9755 90.7672 13.5225H90.5101C90.4693 13.2204 90.3917 12.9225 90.2774 12.6286C90.1632 12.3347 89.9958 12.0939 89.7754 11.9062C89.5632 11.7184 89.2856 11.6246 88.9428 11.6246C88.7061 11.6246 88.5061 11.6939 88.3428 11.8327C88.1795 11.9633 88.0979 12.1552 88.0979 12.4082C88.0979 12.6531 88.1714 12.8694 88.3183 13.0572C88.4652 13.2368 88.653 13.4123 88.8816 13.5837C89.1183 13.747 89.3632 13.9225 89.6162 14.1102C90.0244 14.4123 90.3672 14.7184 90.6448 15.0286C90.9305 15.3306 91.0733 15.7265 91.0733 16.2163C91.0733 16.5836 90.9672 16.9061 90.755 17.1836C90.5427 17.453 90.2611 17.6612 89.9101 17.8081C89.5673 17.955 89.1836 18.0285 88.7591 18.0285C88.5142 18.0285 88.2938 18.004 88.0979 17.955C87.9102 17.9061 87.7469 17.8448 87.6081 17.7714C87.502 17.7224 87.4 17.6775 87.302 17.6367C87.2122 17.5877 87.1265 17.5469 87.0449 17.5142C86.9632 17.4897 86.8898 17.5183 86.8245 17.5999C86.7673 17.6816 86.7224 17.7958 86.6898 17.9428H86.4326C86.449 17.6816 86.4612 17.3632 86.4694 16.9877C86.4775 16.6122 86.4816 16.1143 86.4816 15.4939H86.7387C86.7877 15.9347 86.8775 16.3265 87.0081 16.6693C87.1387 17.004 87.3142 17.2693 87.5346 17.4652C87.7632 17.653 88.0489 17.7469 88.3918 17.7469C88.604 17.7469 88.7999 17.6816 88.9795 17.551C89.1591 17.4122 89.2489 17.1877 89.2489 16.8775C89.2489 16.5183 89.1305 16.2204 88.8938 15.9836C88.6652 15.7469 88.3714 15.4898 88.0122 15.2122C87.751 15 87.502 14.7918 87.2653 14.5878C87.0367 14.3755 86.8489 14.147 86.702 13.9021C86.5551 13.649 86.4816 13.3633 86.4816 13.0449C86.4816 12.6776 86.5796 12.3674 86.7755 12.1143C86.9714 11.8613 87.2285 11.6735 87.5469 11.5511C87.8734 11.4205 88.2203 11.3552 88.5877 11.3552Z" fill="white"/>
<path d="M94.8559 11.3552C95.4518 11.3552 95.9742 11.4654 96.4232 11.6858C96.8722 11.9062 97.2232 12.2613 97.4762 12.7511C97.7293 13.2408 97.8558 13.8898 97.8558 14.698C97.8558 15.5061 97.7293 16.1551 97.4762 16.6449C97.2232 17.1265 96.8722 17.4775 96.4232 17.6979C95.9742 17.9183 95.4518 18.0285 94.8559 18.0285C94.2763 18.0285 93.7579 17.9183 93.3008 17.6979C92.8518 17.4775 92.4967 17.1265 92.2355 16.6449C91.9825 16.1551 91.8559 15.5061 91.8559 14.698C91.8559 13.8898 91.9825 13.2408 92.2355 12.7511C92.4967 12.2613 92.8518 11.9062 93.3008 11.6858C93.7579 11.4654 94.2763 11.3552 94.8559 11.3552ZM94.8559 11.6001C94.5294 11.6001 94.2559 11.845 94.0355 12.3347C93.8151 12.8164 93.7049 13.6041 93.7049 14.698C93.7049 15.7918 93.8151 16.5796 94.0355 17.0612C94.2559 17.5428 94.5294 17.7836 94.8559 17.7836C95.1906 17.7836 95.464 17.5428 95.6763 17.0612C95.8967 16.5796 96.0069 15.7918 96.0069 14.698C96.0069 13.6041 95.8967 12.8164 95.6763 12.3347C95.464 11.845 95.1906 11.6001 94.8559 11.6001Z" fill="white"/>
<path d="M102.71 11.3552C102.971 11.3552 103.183 11.4123 103.347 11.5266C103.51 11.6327 103.628 11.7715 103.702 11.9429C103.783 12.1143 103.824 12.2939 103.824 12.4817C103.824 12.7837 103.734 13.0327 103.555 13.2286C103.383 13.4164 103.155 13.5102 102.869 13.5102C102.583 13.5102 102.359 13.4408 102.196 13.3021C102.041 13.1551 101.963 12.9633 101.963 12.7266C101.963 12.498 102.012 12.3103 102.11 12.1633C102.216 12.0082 102.347 11.8776 102.502 11.7715C102.388 11.7388 102.273 11.7429 102.159 11.7837C101.947 11.8164 101.755 11.9184 101.583 12.0899C101.42 12.2531 101.29 12.449 101.192 12.6776C101.094 12.9062 101.045 13.1306 101.045 13.3511V16.5959C101.045 16.9877 101.139 17.253 101.326 17.3918C101.522 17.5306 101.812 17.5999 102.196 17.5999V17.8571C102.008 17.8489 101.734 17.8407 101.375 17.8326C101.016 17.8163 100.641 17.8081 100.249 17.8081C99.9223 17.8081 99.5917 17.8163 99.257 17.8326C98.9223 17.8407 98.6692 17.8489 98.4978 17.8571V17.5999C98.7835 17.5999 98.9835 17.5387 99.0978 17.4163C99.2202 17.2938 99.2815 17.0612 99.2815 16.7183V12.8613C99.2815 12.4939 99.2243 12.2245 99.11 12.0531C99.0039 11.8735 98.7998 11.7837 98.4978 11.7837V11.5266C98.759 11.5511 99.0121 11.5633 99.257 11.5633C99.5998 11.5633 99.9182 11.5511 100.212 11.5266C100.514 11.4939 100.792 11.4491 101.045 11.3919V12.5307C101.143 12.3103 101.273 12.1103 101.437 11.9307C101.6 11.7511 101.788 11.6123 102 11.5144C102.212 11.4082 102.449 11.3552 102.71 11.3552Z" fill="white"/>
<rect width="26" height="26" fill="#FFDB43"/>
<g clip-path="url(#clip0_0_12316)">
<path d="M5.4707 20.361C5.52579 20.2583 5.561 20.1879 5.60028 20.1202C6.21056 19.0767 6.81798 18.0315 7.43639 16.9927C7.52127 16.8502 7.5145 16.7646 7.41411 16.6336C4.16331 12.3903 6.71414 6.27064 12.0369 5.53852C15.8065 5.02002 19.3643 7.61981 19.9351 11.3353C20.2398 13.3148 19.7663 15.1125 18.5266 16.7008C18.4157 16.8429 18.3973 16.9366 18.4927 17.0976C19.0845 18.0956 19.6626 19.1014 20.2449 20.1049C20.2851 20.1742 20.3225 20.245 20.3865 20.361C20.0826 20.361 19.8116 20.3626 19.5405 20.361C19.2546 20.3589 18.9161 20.4458 18.6986 20.3231C18.4812 20.2004 18.3817 19.8696 18.2384 19.6254C16.6987 17.0016 13.7645 11.9954 12.224 9.37163C12.1359 9.22255 12.1221 9.11059 12.2112 8.95421C12.4602 8.51816 12.6884 8.07032 12.9536 7.57329L17.5267 15.4239C18.7402 13.8464 19.0154 10.877 17.0196 8.74729C15.0165 6.60935 11.715 6.40675 9.46453 8.28514C7.17693 10.1944 7.01544 13.3286 8.39598 15.3473L12.9536 7.57329C13.0938 7.81301 13.2197 8.02202 13.3398 8.23431C13.507 8.52829 13.7086 8.8174 13.7104 9.11466C13.7121 9.40194 13.5056 9.6999 13.3374 9.98688C11.3484 13.373 9.36033 16.7594 7.37303 20.1463C7.27927 20.3063 7.18219 20.3726 6.99061 20.3666C6.49561 20.3508 5.99986 20.361 5.4707 20.361Z" fill="#1D2624"/>
<path d="M8.95703 19.0669L9.7136 17.7793C11.8703 19.1842 14.0345 19.1997 16.2268 17.8218L16.9737 19.0931C14.9375 20.6929 11.3456 20.8739 8.95703 19.0669Z" fill="#1D2624"/>
</g>
<defs>
<clipPath id="clip0_0_12316">
<rect width="14.9158" height="14.9158" fill="white" transform="translate(5.47266 5.47266)"/>
</clipPath>
</defs>
</svg>
