<svg width="22" height="20" viewBox="0 0 22 20" fill="none" xmlns="http://www.w3.org/2000/svg">
<path fill-rule="evenodd" clip-rule="evenodd" d="M2.42578 9C2.42578 5.18164 5.6991 2 9.84608 2C13.9931 2 17.2664 5.18164 17.2664 9C17.2664 10.8659 16.4847 12.5798 15.2014 13.8446C15.1547 13.8791 15.1104 13.9181 15.069 13.9616C15.0515 13.98 15.0348 13.999 15.019 14.0183C13.6898 15.2405 11.8722 16 9.84608 16C5.6991 16 2.42578 12.8184 2.42578 9ZM15.7645 16.0018C14.1404 17.2544 12.0763 18 9.84608 18C4.69226 18 0.425781 14.0182 0.425781 9C0.425781 3.98181 4.69226 0 9.84608 0C14.9999 0 19.2664 3.98181 19.2664 9C19.2664 11.1352 18.494 13.0828 17.2094 14.6158L21.0613 18.2754C21.4617 18.6558 21.4779 19.2888 21.0975 19.6892C20.7171 20.0896 20.0841 20.1058 19.6837 19.7254L15.7645 16.0018Z" fill="#7E7E7E"/>
</svg>
