<svg width="128" height="26" viewBox="0 0 128 26" fill="none" xmlns="http://www.w3.org/2000/svg">
<path d="M11.7694 2.92705C12.0688 2.00574 13.3722 2.00574 13.6716 2.92705L15.3519 8.09866C15.4858 8.51069 15.8697 8.78965 16.303 8.78965H21.7407C22.7094 8.78965 23.1122 10.0293 22.3285 10.5987L17.9293 13.7949C17.5788 14.0495 17.4321 14.5009 17.566 14.9129L19.2464 20.0845C19.5457 21.0059 18.4912 21.772 17.7075 21.2026L13.3083 18.0063C12.9578 17.7517 12.4832 17.7517 12.1327 18.0063L7.73348 21.2026C6.94976 21.772 5.89528 21.0059 6.19463 20.0845L7.87499 14.9129C8.00887 14.5009 7.86221 14.0495 7.51172 13.7949L3.11248 10.5987C2.32877 10.0293 2.73155 8.78965 3.70027 8.78965H9.13802C9.57125 8.78965 9.95521 8.51069 10.0891 8.09866L11.7694 2.92705Z" fill="#FFC700"/>
<path d="M37.2108 2.92705C37.5102 2.00574 38.8136 2.00574 39.113 2.92705L40.7933 8.09866C40.9272 8.51069 41.3111 8.78965 41.7444 8.78965H47.1821C48.1509 8.78965 48.5536 10.0293 47.7699 10.5987L43.3707 13.7949C43.0202 14.0495 42.8735 14.5009 43.0074 14.9129L44.6878 20.0845C44.9871 21.0059 43.9326 21.772 43.1489 21.2026L38.7497 18.0063C38.3992 17.7517 37.9246 17.7517 37.5741 18.0063L33.1749 21.2026C32.3912 21.772 31.3367 21.0059 31.636 20.0845L33.3164 14.9129C33.4503 14.5009 33.3036 14.0495 32.9531 13.7949L28.5539 10.5987C27.7702 10.0293 28.173 8.78965 29.1417 8.78965H34.5794C35.0127 8.78965 35.3966 8.51069 35.5305 8.09866L37.2108 2.92705Z" fill="#FFC700"/>
<path d="M63.0526 2.82979C63.3575 1.92007 64.6442 1.92007 64.949 2.82979L66.7174 8.10736C66.854 8.51494 67.2357 8.78965 67.6656 8.78965H73.3211C74.2973 8.78965 74.6951 10.0449 73.8971 10.6071L69.3751 13.793C69.0138 14.0475 68.8624 14.5091 69.0029 14.9282L70.7425 20.12C71.0494 21.0359 70.008 21.8115 69.2184 21.2552L64.5768 17.9851C64.2314 17.7417 63.7703 17.7417 63.4249 17.9851L58.7833 21.2552C57.9936 21.8115 56.9523 21.0359 57.2592 20.12L58.9988 14.9282C59.1392 14.5091 58.9879 14.0475 58.6265 13.793L54.1046 10.6071C53.3066 10.0449 53.7044 8.78965 54.6805 8.78965H60.3361C60.7659 8.78965 61.1477 8.51494 61.2843 8.10736L63.0526 2.82979Z" fill="#FFC700"/>
<path d="M88.8866 2.92705C89.186 2.00574 90.4894 2.00574 90.7887 2.92705L92.4691 8.09866C92.603 8.51069 92.9869 8.78965 93.4202 8.78965H98.8579C99.8266 8.78965 100.229 10.0293 99.4457 10.5987L95.0465 13.7949C94.696 14.0495 94.5493 14.5009 94.6832 14.9129L96.3635 20.0845C96.6629 21.0059 95.6084 21.772 94.8247 21.2026L90.4255 18.0063C90.075 17.7517 89.6004 17.7517 89.2499 18.0063L84.8507 21.2026C84.0669 21.772 83.0125 21.0059 83.3118 20.0845L84.9922 14.9129C85.1261 14.5009 84.9794 14.0495 84.6289 13.7949L80.2297 10.5987C79.446 10.0293 79.8487 8.78965 80.8175 8.78965H86.2552C86.6884 8.78965 87.0724 8.51069 87.2063 8.09866L88.8866 2.92705Z" fill="#FFC700"/>
<path d="M114.328 2.92705C114.627 2.00574 115.931 2.00574 116.23 2.92705L117.911 8.09866C118.044 8.51069 118.428 8.78965 118.862 8.78965H124.299C125.268 8.78965 125.671 10.0293 124.887 10.5987L120.488 13.7949C120.137 14.0495 119.991 14.5009 120.125 14.9129L121.805 20.0845C122.104 21.0059 121.05 21.772 120.266 21.2026L115.867 18.0063C115.516 17.7517 115.042 17.7517 114.691 18.0063L110.292 21.2026C109.508 21.772 108.454 21.0059 108.753 20.0845L110.434 14.9129C110.567 14.5009 110.421 14.0495 110.07 13.7949L105.671 10.5987C104.887 10.0293 105.29 8.78965 106.259 8.78965H111.697C112.13 8.78965 112.514 8.51069 112.648 8.09866L114.328 2.92705Z" fill="#FFC700" fill-opacity="0.26"/>
</svg>
