<svg width="41" height="32" viewBox="0 0 41 32" fill="none" xmlns="http://www.w3.org/2000/svg">
<path d="M33.462 14.2908C33.462 14.2908 34.0029 16.865 34.124 17.4047H31.7465C31.9814 16.7888 32.8854 14.3946 32.8854 14.3946C32.8712 14.4154 33.1203 13.765 33.2627 13.3636L33.462 14.2908ZM41 3.82143V28.1786C41 30.0123 39.4696 31.5 37.5833 31.5H3.41667C1.53038 31.5 0 30.0123 0 28.1786V3.82143C0 1.98772 1.53038 0.5 3.41667 0.5H37.5833C39.4696 0.5 41 1.98772 41 3.82143ZM10.855 21.2036L15.3536 10.4643H12.3285L9.53108 17.7991L9.225 16.3114L8.22847 11.3708C8.06476 10.6857 7.55937 10.492 6.93299 10.4643H2.3276L2.27778 10.6788C3.40243 10.9556 4.40608 11.3569 5.2816 11.8621L7.82986 21.2036H10.855ZM17.5745 21.2174L19.3682 10.4643H16.5068L14.7201 21.2174H17.5745ZM27.5326 17.7022C27.5469 16.4775 26.7781 15.5433 25.1339 14.7752C24.1302 14.2839 23.5181 13.9518 23.5181 13.4467C23.5323 12.99 24.0377 12.5194 25.1623 12.5194C26.0948 12.4987 26.7781 12.7132 27.2906 12.9277L27.5469 13.0453L27.9384 10.7203C27.376 10.5058 26.4792 10.2636 25.3759 10.2636C22.55 10.2636 20.5641 11.7306 20.5498 13.8203C20.5285 15.3634 21.9734 16.2214 23.0554 16.7404C24.1587 17.2663 24.5359 17.6123 24.5359 18.0759C24.5217 18.7955 23.6391 19.1277 22.8205 19.1277C21.6816 19.1277 21.0694 18.9547 20.137 18.5533L19.7597 18.3804L19.3611 20.7953C20.0302 21.0929 21.2687 21.3558 22.55 21.3696C25.5538 21.3766 27.5113 19.9304 27.5326 17.7022ZM37.5833 21.2174L35.2771 10.4643H33.0634C32.38 10.4643 31.8604 10.658 31.5686 11.3569L27.3191 21.2174H30.3229C30.3229 21.2174 30.8141 19.8888 30.9208 19.6051H34.5938C34.6792 19.9857 34.9354 21.2174 34.9354 21.2174H37.5833Z" fill="black" fill-opacity="0.3"/>
</svg>
